<?xml version="1.0" encoding="UTF-8"?>
<svg width="105px" height="65px" viewBox="0 0 105 65" version="1.1" xmlns="http://www.w3.org/2000/svg" xmlns:xlink="http://www.w3.org/1999/xlink">
    <!-- Generator: Sketch 51.2 (57519) - http://www.bohemiancoding.com/sketch -->
    <title>Fill 1</title>
    <desc>Created with Sketch.</desc>
    <defs></defs>
    <g id="Page-1" stroke="none" stroke-width="1" fill="none" fill-rule="evenodd">
        <g id="Group-3" fill="#007AFF">
            <path d="M82.3381,39.4316 L83.9611,39.4316 L83.9611,41.2186 C83.5701,41.2966 83.1861,41.3356 82.8071,41.3356 C82.0801,41.3356 81.5261,41.0906 81.1461,40.6006 C80.7651,40.1106 80.5741,39.4006 80.5741,38.4706 C80.5741,37.5796 80.8111,36.8706 81.2831,36.3436 C81.7561,35.8166 82.3851,35.5526 83.1701,35.5526 C83.8461,35.5526 84.4961,35.7086 85.1211,36.0216 L85.7251,34.5686 C84.9081,34.2166 84.0611,34.0406 83.1821,34.0406 C81.7791,34.0406 80.6831,34.4276 79.8921,35.2016 C79.1011,35.9746 78.7051,37.0526 78.7051,38.4356 C78.7051,39.8576 79.0461,40.9486 79.7281,41.7076 C80.4091,42.4676 81.3971,42.8476 82.6901,42.8476 C83.1971,42.8476 83.6941,42.8116 84.1811,42.7396 C84.6671,42.6666 85.1861,42.5406 85.7361,42.3616 L85.7361,37.9196 L82.3381,37.9196 L82.3381,39.4316 Z M76.9641,34.1636 L75.3301,34.1636 L75.3301,38.2186 C75.3301,38.6796 75.3591,39.4666 75.4181,40.5796 L75.3771,40.5796 L71.6561,34.1636 L69.3651,34.1636 L69.3651,42.7306 L70.9881,42.7306 L70.9881,38.6996 C70.9881,38.2106 70.9511,37.3946 70.8771,36.2496 L70.9291,36.2496 L74.6561,42.7306 L76.9641,42.7306 L76.9641,34.1636 Z M62.8811,39.1676 C63.4901,37.1956 63.8591,35.9586 63.9881,35.4586 C64.0201,35.5996 64.0711,35.7906 64.1441,36.0336 C64.2161,36.2756 64.5391,37.3206 65.1131,39.1676 L62.8811,39.1676 Z M68.1251,42.7306 L65.0901,34.1286 L62.8691,34.1286 L59.8461,42.7306 L61.8031,42.7306 L62.4241,40.6916 L65.5471,40.6916 L66.1681,42.7306 L68.1251,42.7306 Z M60.0201,34.1636 L58.2331,34.1636 L57.1431,38.8396 C57.0721,39.1206 56.9941,39.4896 56.9081,39.9446 C56.8221,40.3996 56.7601,40.7796 56.7211,41.0836 C56.6781,40.7676 56.6151,40.3886 56.5331,39.9476 C56.4511,39.5056 56.3831,39.1776 56.3281,38.9626 L55.0801,34.1636 L53.3631,34.1636 L52.1151,38.9626 C52.0411,39.2206 51.9621,39.5826 51.8781,40.0496 C51.7941,40.5166 51.7401,40.8616 51.7171,41.0836 C51.6311,40.4516 51.4921,39.7026 51.3011,38.8396 L50.2051,34.1636 L48.4181,34.1636 L50.6041,42.7306 L52.6661,42.7306 L53.8201,38.2426 C53.8711,38.0426 53.9431,37.7096 54.0371,37.2436 C54.1311,36.7766 54.1901,36.4376 54.2131,36.2266 C54.2291,36.3986 54.2881,36.7356 54.3921,37.2376 C54.4951,37.7396 54.5681,38.0706 54.6111,38.2306 L55.7721,42.7306 L57.8401,42.7306 L60.0201,34.1636 Z M104.9951,22.1636 L103.3601,22.1636 L103.3601,26.2186 C103.3601,26.6796 103.3901,27.4666 103.4481,28.5796 L103.4071,28.5796 L99.6871,22.1636 L97.3961,22.1636 L97.3961,30.7306 L99.0191,30.7306 L99.0191,26.6996 C99.0191,26.2106 98.9821,25.3946 98.9071,24.2496 L98.9601,24.2496 L102.6871,30.7306 L104.9951,30.7306 L104.9951,22.1636 Z M90.6311,22.1636 L88.6621,22.1636 L91.5041,27.4546 L91.5041,30.7306 L93.3091,30.7306 L93.3091,27.3966 L96.1511,22.1636 L94.1931,22.1636 L92.4061,25.6916 L90.6311,22.1636 Z M83.8231,23.6526 L84.3741,23.6526 C84.9601,23.6526 85.3931,23.7386 85.6721,23.9106 C85.9511,24.0816 86.0911,24.3706 86.0911,24.7776 C86.0911,25.1876 85.9541,25.4886 85.6811,25.6796 C85.4071,25.8706 84.9841,25.9666 84.4091,25.9666 L83.8231,25.9666 L83.8231,23.6526 Z M84.7901,27.4436 L86.8351,30.7306 L88.8511,30.7306 C88.4601,30.1676 87.6201,28.9236 86.3311,26.9976 C86.8391,26.7756 87.2321,26.4676 87.5091,26.0756 C87.7861,25.6826 87.9251,25.2346 87.9251,24.7306 C87.9251,23.8676 87.6461,23.2236 87.0871,22.7996 C86.5281,22.3756 85.6671,22.1636 84.5031,22.1636 L82.0071,22.1636 L82.0071,30.7306 L83.8231,30.7306 L83.8231,27.4436 L84.7901,27.4436 Z M79.8791,22.1636 L78.0681,22.1636 L78.0681,25.5216 L74.6751,25.5216 L74.6751,22.1636 L72.8591,22.1636 L72.8591,30.7306 L74.6751,30.7306 L74.6751,27.0336 L78.0681,27.0336 L78.0681,30.7306 L79.8791,30.7306 L79.8791,22.1636 Z M69.1681,23.6756 L71.4941,23.6756 L71.4941,22.1636 L65.0251,22.1636 L65.0251,23.6756 L67.3511,23.6756 L67.3511,30.7306 L69.1681,30.7306 L69.1681,23.6756 Z M60.1231,27.1676 C60.7321,25.1956 61.1011,23.9586 61.2301,23.4586 C61.2611,23.5996 61.3131,23.7906 61.3851,24.0336 C61.4581,24.2756 61.7811,25.3206 62.3551,27.1676 L60.1231,27.1676 Z M65.3671,30.7306 L62.3321,22.1286 L60.1111,22.1286 L57.0881,30.7306 L59.0451,30.7306 L59.6661,28.6916 L62.7891,28.6916 L63.4101,30.7306 L65.3671,30.7306 Z M53.3751,25.9546 L56.3631,22.1636 L54.3481,22.1636 L52.0271,25.0766 L51.3131,26.0836 L51.3131,22.1636 L49.4961,22.1636 L49.4961,30.7306 L51.3131,30.7306 L51.3131,27.6716 L52.0801,27.1206 L54.3241,30.7306 L56.3871,30.7306 L53.3751,25.9546 Z M0.0001,32.4886 L105.1091,64.9766 L0.0001,64.9766 L0.0001,-0.0004 L105.1091,-0.0004 L0.0001,32.4886 Z" id="Fill-1"></path>
        </g>
    </g>
</svg>